<?xml version="1.0" encoding="utf-8"?>
<!-- Generator: Adobe Illustrator 16.0.0, SVG Export Plug-In . SVG Version: 6.00 Build 0)  -->
<!DOCTYPE svg PUBLIC "-//W3C//DTD SVG 1.1//EN" "http://www.w3.org/Graphics/SVG/1.1/DTD/svg11.dtd">
<svg version="1.1" id="Capa_1" xmlns="http://www.w3.org/2000/svg" xmlns:xlink="http://www.w3.org/1999/xlink" x="0px" y="0px"
	 width="20px" height="20px" viewBox="0 0 20 20" enable-background="new 0 0 20 20" xml:space="preserve">
<path fill="#FFFFFF" d="M19.5,17.5c0,1.1-0.9,2-2,2h-15c-1.1,0-2-0.9-2-2v-15c0-1.1,0.9-2,2-2h15c1.1,0,2,0.9,2,2V17.5z"/>
<g>
	<path d="M9.329,13.588L5.784,5.459H5.724v6.798c0,0.371,0.053,0.623,0.157,0.757c0.105,0.133,0.335,0.216,0.69,0.248l0.351,0.036
		v0.133c-0.138-0.008-0.316-0.016-0.538-0.024c-0.223-0.008-0.462-0.012-0.721-0.012c-0.152,0-0.3,0.002-0.441,0.006
		c-0.141,0.004-0.27,0.008-0.387,0.012c-0.117,0.005-0.216,0.011-0.297,0.019v-0.133l0.267-0.024
		c0.218-0.032,0.383-0.079,0.496-0.139c0.112-0.061,0.189-0.158,0.229-0.291s0.061-0.328,0.061-0.587V6.039
		c0-0.258-0.021-0.453-0.061-0.586C5.49,5.319,5.413,5.221,5.301,5.156C5.188,5.092,5.022,5.048,4.805,5.023L4.538,4.999V4.866
		c0.129,0,0.287,0.004,0.473,0.012c0.185,0.009,0.391,0.015,0.616,0.019s0.468,0.006,0.727,0.006h0.181
		c0.186,0,0.361-0.004,0.526-0.012s0.313-0.017,0.441-0.024l2.746,6.375l-0.157,0.169l2.359-6.544c0.209,0.017,0.4,0.026,0.574,0.03
		s0.341,0.006,0.502,0.006h0.121c0.266,0,0.512-0.002,0.738-0.006c0.226-0.004,0.431-0.01,0.616-0.019
		c0.186-0.008,0.339-0.012,0.46-0.012v0.133l-0.266,0.036c-0.218,0.017-0.384,0.057-0.496,0.121
		c-0.113,0.064-0.189,0.163-0.23,0.297c-0.04,0.133-0.061,0.328-0.061,0.586v6.218c0,0.259,0.021,0.454,0.061,0.587
		c0.041,0.133,0.117,0.23,0.23,0.291c0.112,0.06,0.278,0.103,0.496,0.127l0.266,0.036v0.133c-0.121-0.008-0.274-0.014-0.46-0.019
		c-0.186-0.004-0.391-0.008-0.616-0.012c-0.227-0.004-0.473-0.006-0.738-0.006h-0.146h-0.157c-0.25,0-0.485,0.002-0.707,0.006
		c-0.223,0.004-0.422,0.008-0.6,0.012c-0.177,0.005-0.33,0.011-0.459,0.019v-0.133l0.242-0.024c0.209-0.032,0.368-0.079,0.478-0.139
		c0.108-0.061,0.182-0.158,0.218-0.291s0.055-0.328,0.055-0.587l0.012-7.173h-0.061L9.45,13.588H9.329z"/>
</g>
</svg>
